<svg width="67" height="67" viewBox="0 0 67 67" fill="none" xmlns="http://www.w3.org/2000/svg">
<rect x="67" y="67" width="67" height="67" transform="rotate(-180 67 67)" fill="#E32E2E"/>
<path d="M47 33L48.423 35.0555C49.0975 34.5885 49.5 33.8204 49.5 33C49.5 32.1796 49.0975 31.4115 48.423 30.9445L47 33ZM19.577 48.9445C18.4418 49.7304 18.1586 51.2878 18.9445 52.423C19.7304 53.5582 21.2878 53.8414 22.423 53.0555L19.577 48.9445ZM22.423 12.9445C21.2878 12.1586 19.7304 12.4418 18.9445 13.577C18.1586 14.7122 18.4418 16.2696 19.577 17.0555L22.423 12.9445ZM45.577 30.9445L19.577 48.9445L22.423 53.0555L48.423 35.0555L45.577 30.9445ZM19.577 17.0555L45.577 35.0555L48.423 30.9445L22.423 12.9445L19.577 17.0555Z" fill="white"/>
</svg>
