<svg width="67" height="67" viewBox="0 0 67 67" fill="none" xmlns="http://www.w3.org/2000/svg">
<rect width="67" height="67" fill="#E32E2E"/>
<path d="M20 34L18.577 31.9445C17.9025 32.4115 17.5 33.1796 17.5 34C17.5 34.8204 17.9025 35.5885 18.577 36.0555L20 34ZM47.423 18.0555C48.5582 17.2696 48.8414 15.7122 48.0555 14.577C47.2696 13.4418 45.7122 13.1586 44.577 13.9445L47.423 18.0555ZM44.577 54.0555C45.7122 54.8414 47.2696 54.5582 48.0555 53.423C48.8414 52.2878 48.5582 50.7304 47.423 49.9445L44.577 54.0555ZM21.423 36.0555L47.423 18.0555L44.577 13.9445L18.577 31.9445L21.423 36.0555ZM47.423 49.9445L21.423 31.9445L18.577 36.0555L44.577 54.0555L47.423 49.9445Z" fill="white"/>
</svg>
