<svg xmlns="http://www.w3.org/2000/svg" viewBox="0 0 180 190"><defs><style>.cls-1{fill:#8e1410;}.cls-2{fill:#ed1c24;}.cls-3{fill:#dbe9f1;}.cls-4{fill:#231f20;}</style></defs><g id="Layer_15" data-name="Layer 15"><path class="cls-1" d="M154.79,120.62a175,175,0,0,1-17.79.2c-1.19-.07-2.31-.16-3.34-.27-4.42-.49-10-1.28-16.26-2.25-9.3-1.45-20.19-3.3-31.31-5.18h0l-.11,0-4.4-.75-5.29-.89h0l-4.07-.68L67,109.92H67l-2.36-.38c-8.27-1.34-16.17-2.55-23.07-3.46-5.76-.77-10.82-1.33-14.86-1.58a42.17,42.17,0,0,1-.06-19c6.19-.35,10.89-.3,14.3-.23l2.52.06a164.16,164.16,0,0,1,19.35,1.26,46.44,46.44,0,0,1,10.72,2.65c.88.36,1.72.71,2.53,1.06,14.57,6.38,17.8,12.19,31.61,17.43,16.52,6.27,32.6,4.64,37.08,1.87,2.82-1.74,4.21-4,4.06-6.58h0l.4.25,1.31.84c4.74,3.13,12.92,9.07,13.37,11.74C164.24,117.82,162.73,120.22,154.79,120.62Z"/><path class="cls-2" d="M148.8,103c-.61-.38-1.21-.77-1.82-1.19-3.57-2.41-7.54-5.55-15.6-10.92C119.62,83,115,79.07,103.6,75.9a100.85,100.85,0,0,0-18.32-2.69l-2-.14h-.06c-2.8-.18-5.67-.31-8.56-.39-.83,0-1.64,0-2.47-.06h0c-1.29,0-2.59,0-3.87,0H67.4c-4.34,0-8.56.07-12.43.25-1.72.08-3.76.22-6.08.41-5.06.41-11.42,1.1-18.55,2.13a43,43,0,0,0-3.7,10.1c6.19-.35,10.89-.3,14.3-.23l2.52.06a164.16,164.16,0,0,1,19.35,1.26,46.44,46.44,0,0,1,10.72,2.65c.88.36,1.72.71,2.53,1.06,14.57,6.38,17.8,12.19,31.61,17.43,16.52,6.27,32.6,4.64,37.08,1.87,2.82-1.74,4.21-4,4.06-6.58ZM132,99.69c-1.44,1.12-1.66,1.52-5.08,1.49-9.3-.09,2.08-2-1.85-5.21-6.56-5.4-7.17-7.09-17.47-12.89-7.43-4.19-4-2.12-9.43-4.46-1.51-.66,3.29-.44,8.44,2.09A103,103,0,0,1,121,89C134.77,98.66,135.4,97,132,99.69Z"/><path class="cls-3" d="M132,99.69c-1.44,1.12-1.66,1.52-5.08,1.49-9.3-.09,2.08-2-1.85-5.21-6.56-5.4-7.17-7.09-17.47-12.89-7.43-4.19-4-2.12-9.43-4.46-1.51-.66,3.29-.44,8.44,2.09A103,103,0,0,1,121,89C134.77,98.66,135.4,97,132,99.69Z"/><path class="cls-4" d="M113.67,121.5a29.74,29.74,0,0,1-8.89,1.34c-.46,0-.91,0-1.36,0a1.69,1.69,0,0,1-.32,0c-.4,0-.8-.05-1.19-.09-.59,0-1.16-.12-1.74-.22h0a.71.71,0,0,1-.2,0,27.52,27.52,0,0,1-4.17-1c-.42-.13-.83-.27-1.24-.43s-.89-.34-1.33-.53-.88-.38-1.3-.6-.68-.34-1-.52l-.29-.15c-.4-.22-.79-.45-1.18-.7-.73-.45-1.45-.94-2.13-1.46h0c-.22-.17-.43-.33-.64-.51-.59-.46-1.17-1-1.72-1.48-.3-.28-.59-.57-.88-.86a3.62,3.62,0,0,1-.38-.41c-.1-.09-.18-.18-.27-.27s-.17-.18-.25-.28-.28-.31-.41-.47-.35-.4-.52-.61l-.26-.33c-.13-.16-.25-.32-.37-.49s-.2-.25-.29-.38c-.28-.38-.55-.76-.8-1.15s-.46-.71-.67-1.07c-.07-.11-.13-.22-.19-.33-.16-.26-.3-.52-.44-.79-.24-.43-.46-.86-.67-1.3-.05-.1-.09-.19-.13-.29A27.84,27.84,0,0,1,77,102.35c0-.15-.09-.3-.13-.45-.12-.39-.23-.79-.32-1.19s-.15-.63-.21-.95-.18-.87-.24-1.3c0-.2-.07-.41-.1-.61-.07-.48-.12-1-.16-1.45,0-.31-.06-.61-.07-.92a1.7,1.7,0,0,1,0-.22c0-.47,0-1,0-1.42s0-.75,0-1.13a0,0,0,0,1,0,0c0-.46,0-.92.09-1.37,0-.15,0-.3,0-.45v-.06c0-.34.08-.68.13-1a.13.13,0,0,1,0-.06c0-.16,0-.32.08-.47a.77.77,0,0,1,0-.15,1.93,1.93,0,0,1,.06-.36,24.47,24.47,0,0,1,.69-3q.14-.48.3-1a11.07,11.07,0,0,1,.39-1.1,20.47,20.47,0,0,1,.82-2,5.12,5.12,0,0,1,.25-.53A25,25,0,0,1,79.78,79c.2-.33.4-.66.62-1a26.49,26.49,0,0,1,1.89-2.6c.54-.67,1.11-1.31,1.72-1.93a7.87,7.87,0,0,1,.59-.57c.22-.23.45-.45.68-.65s.38-.34.57-.5a4.23,4.23,0,0,1,.4-.34s0,0,0,0l.32-.26c.46-.38.93-.74,1.42-1.08.14-.1.28-.2.43-.29.31-.22.64-.43,1-.63s.8-.49,1.22-.72c.83-.46,1.68-.88,2.56-1.26.3-.13.6-.26.91-.37a.11.11,0,0,1,.08,0c.22-.09.44-.18.67-.25s.57-.21.85-.29.62-.21.94-.29c.13-.05.26-.08.4-.12.38-.1.77-.2,1.16-.28s.62-.15.94-.2.64-.12,1-.17a4,4,0,0,1,.59-.08.08.08,0,0,1,.08,0q.33-.06.66-.09a0,0,0,0,1,0,0,3.87,3.87,0,0,1,.49,0l.19,0,.9-.07.44,0c.42,0,.86,0,1.29,0a29.2,29.2,0,0,1,22.9,11l11.91-6.88a43.15,43.15,0,0,0-33.65-17.81c-.37,0-.76,0-1.16,0-.75,0-1.5,0-2.24.06a39.82,39.82,0,0,0-4.13.42l-.83.13-1,.17-.22,0-1.11.24-1.13.27L93,52.68c-.5.14-1,.29-1.5.46l-.76.26-.87.31c-.54.2-1.07.41-1.59.64a2.75,2.75,0,0,0-.36.15c-.46.2-.91.4-1.36.62A42.64,42.64,0,0,0,30.34,74.34a43,43,0,0,0-3.7,10.1,42.76,42.76,0,0,0,59.93,48l1,.47q.51.24,1,.45a40.72,40.72,0,0,0,5.27,1.76l.8.2a39.81,39.81,0,0,0,4.14.78l.77.1a41.49,41.49,0,0,0,5.14.31c.41,0,.79,0,1.17,0a43,43,0,0,0,28.25-11.64c-4.21-.66-8.66-1.39-12.88-2.08Zm-45.29,1.34a28.78,28.78,0,0,1-23.26-11.56,27.23,27.23,0,0,1-2.59-4.13c-.35-.68-.68-1.37-1-2.08a28.75,28.75,0,0,1-2.28-11.23c0-.39,0-.79,0-1.18a29.73,29.73,0,0,1,1.52-8.15c0-.1.07-.2.11-.3A28.75,28.75,0,0,1,43.37,79,29.75,29.75,0,0,1,46.7,74.4h0a26.5,26.5,0,0,1,2.18-2.19,28.69,28.69,0,0,1,19.49-7.48,29.69,29.69,0,0,1,4.76.38c-.71.79-1.39,1.6-2,2.44l-.64.84-.62.85c-.52.74-1,1.5-1.5,2.28a.05.05,0,0,0,0,0l0,0-.09.15,0,.08a.2.2,0,0,0,0,.08h0c-.22.37-.44.75-.65,1.13s-.42.77-.63,1.16-.28.52-.4.79-.37.75-.54,1.13-.47,1-.68,1.57-.36.89-.53,1.34-.25.66-.36,1c-.23.67-.44,1.34-.64,2-.1.34-.19.68-.28,1s-.18.69-.26,1-.11.46-.16.69-.11.5-.16.75-.05.22-.07.33a.5.5,0,0,1,0,.12c-.07.36-.13.73-.19,1.1s-.09.54-.12.81a1.13,1.13,0,0,0,0,.18c-.15,1.08-.26,2.18-.33,3.28l0,.71c0,.59,0,1.18,0,1.78a40.44,40.44,0,0,0,.34,5.3c.13,1,.3,2.09.51,3.11a42.67,42.67,0,0,0,1.35,5c.13.38.26.75.4,1.13,0,0,0,.09,0,.13.12.34.26.67.39,1,.29.74.61,1.47,1,2.19.08.18.17.36.26.54s.17.36.26.54c.18.36.36.71.55,1.06.42.78.86,1.54,1.32,2.29.11.19.23.37.35.56s.23.37.36.55c.22.34.44.67.67,1l.85,1.17c.26.35.53.69.81,1,.42.52.84,1,1.28,1.52l.43.48A30.51,30.51,0,0,1,68.38,122.84Z"/></g></svg>