<svg xmlns="http://www.w3.org/2000/svg" viewBox="0 0 1089 1089"><defs><style>.cls-1{fill:#231f20;}.cls-2{fill:#8e1410;}.cls-3{fill:#ed1c24;}.cls-4{fill:#dbe9f1;}</style></defs><g id="Layer_15" data-name="Layer 15"><path class="cls-1" d="M571.17,418.56V521H476.39V418.56H434.52V528l8.8,5.9,3.27,2.17,6.36,4.31c10.48,7.15,18.46,12.93,24.91,17.54l3.88,2.81h89.43V670.44h42.17V418.56ZM472.32,648.34c-7.06,0-13.53-.15-19.25-.49-2.84-.15-5.53-.34-8-.61-1-.06-1.92-.15-2.87-.28-2.42-.27-5-.58-7.64-.91v24.39h41.87V648.31C475,648.34,473.64,648.34,472.32,648.34Z"/><path class="cls-1" d="M349.34,633.12c12.86,2.14,26.43,4.37,39.3,6.39a131.5,131.5,0,0,1-89.89,35.66c-50.67,0-93.55-28.63-115.37-69.31a145.64,145.64,0,0,1-6.15-13.21,129.32,129.32,0,0,1-9.29-48c0-1.81,0-3.61.13-5.41a112.15,112.15,0,0,1,1.1-12.2,116.28,116.28,0,0,1,2.29-12.16,128.64,128.64,0,0,1,8.4-24.36,135.38,135.38,0,0,1,6.76-12.84c22.64-37.71,63.84-63.84,112.13-63.84,43.83,0,82.65,21.94,106.43,54.52l-36.44,21a89.23,89.23,0,0,0-70-33.68,87.8,87.8,0,0,0-56.54,20.2A86.85,86.85,0,0,0,230,488.19,88.59,88.59,0,0,0,214.25,517a79.09,79.09,0,0,0-3,12,80.2,80.2,0,0,0-1.31,12.16c-.06,1.14-.1,2.3-.1,3.43a89.05,89.05,0,0,0,19.93,56.05,88.42,88.42,0,0,0,69,32.61,89.83,89.83,0,0,0,27.18-4.12C333.87,630.52,341.67,631.87,349.34,633.12Z"/><path class="cls-1" d="M843.5,599.52a89.28,89.28,0,0,1-159.21-54.87c0-47.38,37.9-88.95,89-88.95a89.2,89.2,0,0,1,70,33.67l36.43-21c-23.75-32.57-62.58-54.51-106.39-54.51-73.67,0-130.82,60.83-130.82,130.82s57.15,130.51,130.82,130.51a132.21,132.21,0,0,0,106.67-54.62Z"/><path class="cls-2" d="M508.11,635c-6.81.37-13.47.65-19.86.83-4.07.12-8,.18-11.86.21-8.22.1-15.83-.06-22.65-.42-2.69-.16-5.25-.34-7.67-.59-.86-.06-1.71-.15-2.54-.24-2.84-.31-5.86-.67-9-1.07-10.42-1.31-22.44-3-35.58-5-1.68-.28-3.39-.52-5.1-.8-13.27-2-27.57-4.4-42.52-6.87l-5.53-.92L309.45,614c-3.76-.61-7.52-1.26-11.31-1.9h0l-.33-.06-19.47-3.3c-3.39-.58-6.76-1.16-10.15-1.71h0c-4.16-.7-8.28-1.41-12.44-2.08-5.29-.89-10.54-1.74-15.77-2.63h-.15v0c-3.36-.55-6.7-1.1-10-1.62a89.05,89.05,0,0,1-19.93-56.05c0-1.13,0-2.29.1-3.43a80.2,80.2,0,0,1,1.31-12.16c18.71,1.65,35.27,4.52,48.54,9.9,4,1.62,7.73,3.24,11.27,4.83,1.41.64,2.82,1.29,4.13,1.93,3.33,1.59,6.48,3.15,9.44,4.73,1.2.62,2.36,1.26,3.49,1.87,1.8,1,3.54,2,5.25,3,1.5.89,2.94,1.75,4.34,2.6,4.19,2.51,8,5,11.77,7.49,1.77,1.16,3.52,2.29,5.23,3.45,1.43,1,2.87,1.93,4.31,2.88,5.5,3.63,11,7.24,17.2,10.72,1,.55,2,1.13,3,1.69.76.39,1.53.82,2.32,1.25,3.06,1.62,6.3,3.21,9.78,4.8,1.56.7,3.18,1.43,4.83,2.11,1.26.55,2.54,1.07,3.88,1.62s2.66,1.07,4.07,1.58c1.77.68,3.58,1.32,5.35,1.93,1.16.43,2.32.83,3.48,1.19a204.19,204.19,0,0,0,25,6.45c2.05.4,4.07.76,6.09,1.07s4,.64,5.92.89c6.27.82,12.35,1.31,18.1,1.56,2.2.09,4.37.15,6.48.15h.85c.95,0,1.87,0,2.78,0s1.75,0,2.6-.06c1.81-.06,3.61-.16,5.32-.25s3.39-.24,5-.39l4.56-.56c3-.39,5.77-.88,8.31-1.43.86-.19,1.68-.37,2.45-.58a56.29,56.29,0,0,0,5.86-1.81c.52-.18,1-.36,1.5-.58l1-.42c.46-.22.89-.43,1.28-.65l.34-.18a11.59,11.59,0,0,0,1-.58,31.87,31.87,0,0,0,7.18-5.87,7.55,7.55,0,0,0,.92-1.1,21.47,21.47,0,0,0,1.92-2.84,6.79,6.79,0,0,0,.46-.89,4.67,4.67,0,0,0,.34-.67,16.56,16.56,0,0,0,1.28-4.16,9,9,0,0,0,.19-1.16,4.38,4.38,0,0,0,.09-.88c0-.43.06-.86.06-1.29s0-.82,0-1.25h0l1.22.76,4,2.57c2,1.28,4,2.72,6.3,4.28a0,0,0,0,0,0,0c14.46,10,33.35,24.51,34.54,31.57C537,626.49,532.38,633.82,508.11,635Z"/><path class="cls-3" d="M489.84,581.07l0,0c-.52-.34-1-.64-1.56-1-1.35-.83-2.66-1.71-4-2.63-2.29-1.53-4.61-3.18-7.12-4.95v0l-.18-.12c-.18-.12-.37-.28-.55-.4-7.61-5.44-16.78-12.23-30.32-21.46-2-1.37-4.13-2.81-6.33-4.27-1-.71-2.11-1.41-3.17-2.14-.71-.46-1.38-.92-2.05-1.38-25.46-17-39.86-27.87-59.45-36.22a184,184,0,0,0-23.41-8.07l-.34-.09c-11-3-25.52-5.32-41.87-6.94-6.39-.67-13.05-1.19-19.86-1.61l-.19,0c-8.56-.55-17.33-.94-26.16-1.19-2.54-.09-5-.15-7.55-.18h0c-4.86-.12-9.72-.15-14.52-.18H241c-3.7,0-7.37,0-11,.06A88.59,88.59,0,0,0,214.25,517a79.09,79.09,0,0,0-3,12c18.71,1.65,35.27,4.52,48.54,9.9,4,1.62,7.73,3.24,11.27,4.83,1.41.64,2.82,1.29,4.13,1.93,3.33,1.59,6.48,3.15,9.44,4.73,1.2.62,2.36,1.26,3.49,1.87,1.8,1,3.54,2,5.25,3,1.5.86,2.94,1.72,4.34,2.6,4.19,2.51,8,5,11.77,7.49,1.77,1.16,3.52,2.29,5.23,3.45,1.43,1,2.87,1.93,4.31,2.88,5.5,3.63,11,7.24,17.2,10.72,1,.55,2,1.13,3,1.69.76.39,1.53.82,2.32,1.25,3.06,1.62,6.3,3.21,9.78,4.8,1.56.7,3.18,1.43,4.83,2.11,1.26.55,2.54,1.07,3.88,1.62s2.66,1.07,4.07,1.58c1.77.68,3.58,1.32,5.35,1.93,1.16.43,2.32.83,3.48,1.19a204.19,204.19,0,0,0,25,6.45c2.05.4,4.07.76,6.09,1.07s4,.64,5.92.89c6.27.82,12.35,1.31,18.1,1.56,2.2.09,4.37.15,6.48.15h.85c.95,0,1.87,0,2.78,0s1.75,0,2.6-.06c1.81-.06,3.61-.16,5.32-.25s3.39-.24,5-.39l4.56-.56c3-.39,5.77-.88,8.31-1.43.86-.19,1.68-.37,2.45-.58a56.29,56.29,0,0,0,5.86-1.81c.52-.18,1-.36,1.5-.58l1-.42c.46-.22.89-.43,1.28-.65l.34-.18a11.59,11.59,0,0,0,1-.58,31.87,31.87,0,0,0,7.18-5.87,7.55,7.55,0,0,0,.92-1.1,21.47,21.47,0,0,0,1.92-2.84,6.79,6.79,0,0,0,.46-.89,4.67,4.67,0,0,0,.34-.67,16.56,16.56,0,0,0,1.28-4.16,9,9,0,0,0,.19-1.16,4.38,4.38,0,0,0,.09-.88c0-.43.06-.86.06-1.29S489.87,581.5,489.84,581.07Zm-51.44-10a34.66,34.66,0,0,1-3.88,2.88,11.25,11.25,0,0,1-2.2.91,10.08,10.08,0,0,1-1.65.37,46.22,46.22,0,0,1-7.8.4c-28.42-.28,6.36-6-5.65-15.92-6.63-5.48-11.31-9.69-15.68-13.54-3.64-3.18-7.09-6.12-11.34-9.26-.61-.46-1.25-.92-1.89-1.38s-1.32-.95-2-1.41c-.34-.24-.7-.49-1.07-.73-.58-.4-1.16-.79-1.77-1.19s-1.1-.74-1.65-1.07-1.2-.8-1.81-1.19-1.19-.77-1.8-1.13c-1.22-.77-2.54-1.56-3.88-2.39-.7-.43-1.41-.82-2.11-1.25s-1.5-.89-2.26-1.32-1.53-.91-2.36-1.37c-.58-.37-1.22-.7-1.86-1.07s-1.25-.73-1.93-1.1c-22.7-12.81-12.28-6.48-28.82-13.63-4.61-2,10.06-1.35,25.8,6.39,21.18,10.42,33.65,18.12,44.07,25.42,4.1,2.88,7.83,5.41,11.19,7.68,8.13,5.44,14.15,9.23,18.46,12,.21.15.43.27.61.39l1.59,1c.46.31.91.58,1.34.89a30.26,30.26,0,0,1,4.34,3.18,2.18,2.18,0,0,1,.43.43,2.53,2.53,0,0,1,.31.36,1.35,1.35,0,0,1,.3.43C444.51,566.77,442.34,568,438.4,571.07Z"/><path class="cls-4" d="M438.4,571.07a34.66,34.66,0,0,1-3.88,2.88,11.25,11.25,0,0,1-2.2.91,10.08,10.08,0,0,1-1.65.37,46.22,46.22,0,0,1-7.8.4c-28.42-.28,6.36-6-5.65-15.92-6.63-5.48-11.31-9.69-15.68-13.54-3.64-3.18-7.09-6.12-11.34-9.26-.61-.46-1.25-.92-1.89-1.38s-1.32-.95-2-1.41c-.34-.24-.7-.49-1.07-.73-.58-.4-1.16-.79-1.77-1.19s-1.1-.74-1.65-1.07-1.2-.8-1.81-1.19-1.19-.77-1.8-1.13c-1.22-.8-2.51-1.59-3.88-2.39-.7-.43-1.41-.82-2.11-1.25s-1.5-.89-2.26-1.32-1.53-.91-2.36-1.37c-.58-.37-1.22-.7-1.86-1.07s-1.25-.73-1.93-1.1c-22.7-12.81-12.28-6.48-28.82-13.63-4.61-2,10.06-1.35,25.8,6.39,21.18,10.42,33.65,18.12,44.07,25.42,4.1,2.88,7.83,5.41,11.19,7.68,8.13,5.44,14.15,9.23,18.46,12,.21.15.43.27.61.39l1.59,1c.46.31.91.58,1.34.89a30.26,30.26,0,0,1,4.34,3.18,3.49,3.49,0,0,1,.43.43,2.53,2.53,0,0,1,.31.36,4.85,4.85,0,0,1,.3.43C444.51,566.77,442.34,568,438.4,571.07Z"/></g><g id="Layer_16" data-name="Layer 16"><path class="cls-3" d="M799.77,571.72l3.13,8.59.23.72-7.69-1.35c-6-1-12.05-2.12-18.08-3.15a2.82,2.82,0,0,0-3.33,3c.23,4.72.5,9.44.75,14.16.2,3.88.39,7.75.59,11.69H770c.08-1.65.16-3.28.24-4.91q.27-5.16.55-10.32c.17-3.47.35-6.92.55-10.39a2.88,2.88,0,0,0-3.4-3.2c-3.51.58-7,1.21-10.52,1.83l-15,2.63s-.07,0-.15,0l.21-.65c1-2.83,2.06-5.65,3.08-8.49a2.09,2.09,0,0,0-.8-2.84l-27.42-22.2c-.14-.11-.27-.23-.44-.39l.57-.3,5.4-2.52a2,2,0,0,0,1.23-2.88q-2.62-8.1-5.24-16.16l-.21-.65,3.47.73,12.41,2.64a2.05,2.05,0,0,0,2.71-1.43c.91-2.13,1.81-4.26,2.72-6.4a3.49,3.49,0,0,1,.45-.72,2.57,2.57,0,0,0,.3.57q6,6.42,11.92,12.81a2.25,2.25,0,0,0,1.89.91,1.93,1.93,0,0,0,1.77-2.27c-.45-2.47-.94-4.91-1.41-7.36q-2.31-11.94-4.64-23.87c0-.09,0-.16,0-.33l.63.33c2.94,1.7,5.86,3.4,8.8,5.08,1.44.84,2.47.52,3.24-1,3.13-6.16,6.29-12.33,9.43-18.51l.34-.65c.13.25.25.42.33.61q4.76,9.29,9.46,18.57c.76,1.48,1.8,1.8,3.24,1q4.41-2.52,8.8-5.08l.66-.36c-.23,1.25-.45,2.4-.68,3.56q-2.32,12-4.66,24.1c-.25,1.19-.49,2.39-.71,3.58a2,2,0,0,0,1,2.42,2.07,2.07,0,0,0,2.54-.63c2.11-2.26,4.22-4.54,6.32-6.8,1.89-2,3.78-4,5.65-6.06a6.93,6.93,0,0,0,.46-.59c.34.81.63,1.47.92,2.13.71,1.67,1.41,3.34,2.12,5a2.05,2.05,0,0,0,2.66,1.42L826.1,524l.62-.1c-.93,2.92-1.87,5.76-2.79,8.59s-1.79,5.5-2.68,8.25a2,2,0,0,0,1.21,2.79q2.7,1.28,5.4,2.52l.66.32c-.65.53-1.25,1-1.87,1.53l-26.13,21.16A2,2,0,0,0,799.77,571.72Z"/></g></svg>