<svg width="40" height="40" viewBox="0 0 40 40" fill="none" xmlns="http://www.w3.org/2000/svg">
<path d="M39.2727 20C39.2727 8.95312 30.4824 0 19.6364 0C8.79034 0 0 8.95312 0 20C0 31.0469 8.79034 40 19.6364 40C19.7514 40 19.8665 40 19.9815 39.9922V24.4297H15.7628V19.4219H19.9815V15.7344C19.9815 11.4609 22.5435 9.13281 26.2866 9.13281C28.0815 9.13281 29.6233 9.26562 30.0682 9.32812V13.7969H27.4909C25.4582 13.7969 25.0594 14.7812 25.0594 16.2266V19.4141H29.9301L29.2935 24.4219H25.0594V39.2266C33.2668 36.8281 39.2727 29.1328 39.2727 20Z" fill="black"/>
</svg>
