<svg width="40" height="40" viewBox="0 0 40 40" fill="none" xmlns="http://www.w3.org/2000/svg">
<path d="M19.6364 0C8.79316 0 0 8.95599 0 20C0 31.044 8.79316 40 19.6364 40C30.4796 40 39.2727 31.044 39.2727 20C39.2727 8.95599 30.4796 0 19.6364 0ZM28.6021 15.5939C28.6108 15.7907 28.615 15.9885 28.615 16.1871C28.615 22.2531 24.0816 29.248 15.7912 29.2484H15.7915H15.7912C13.2459 29.2484 10.8774 28.4885 8.88275 27.1863C9.23541 27.2287 9.59436 27.2498 9.95781 27.2498C12.0696 27.2498 14.013 26.5161 15.5557 25.2847C13.5827 25.2475 11.9192 23.9203 11.3451 22.0963C11.6198 22.15 11.9024 22.1793 12.1921 22.1793C12.6035 22.1793 13.002 22.1228 13.3807 22.0175C11.3184 21.597 9.76485 19.7406 9.76485 17.5177C9.76485 17.4969 9.76485 17.4783 9.76545 17.4591C10.3728 17.803 11.0673 18.0099 11.8068 18.0331C10.5966 17.2107 9.8011 15.8047 9.8011 14.212C9.8011 13.371 10.0243 12.583 10.4114 11.9046C12.6341 14.6823 15.9557 16.5091 19.7017 16.701C19.6244 16.3647 19.5845 16.0144 19.5845 15.6543C19.5845 13.1201 21.6031 11.0641 24.0921 11.0641C25.3886 11.0641 26.5595 11.6223 27.382 12.5146C28.4088 12.3083 29.373 11.9263 30.2441 11.4005C29.907 12.4719 29.1927 13.371 28.262 13.9395C29.1738 13.8284 30.0427 13.5822 30.8502 13.2166C30.2471 14.1373 29.4821 14.946 28.6021 15.5939Z" fill="black"/>
</svg>
