<svg width="55" height="29" viewBox="0 0 55 29" fill="none" xmlns="http://www.w3.org/2000/svg">
<path d="M7.00095 0.0745272C4.94207 0.149054 3.39788 0.372637 2.54001 0.670744C1.9395 0.894328 1.08163 1.56507 0.738477 2.08676C0.137967 2.98109 -0.119394 4.17354 0.0521802 5.14239C0.217455 5.83485 0.582572 6.47948 1.11325 7.01575C1.64393 7.55203 2.32276 7.96237 3.08603 8.20822C3.8493 8.4541 4.67197 8.52742 5.47681 8.42136C6.28164 8.31527 7.04226 8.03324 7.68725 7.60179C8.71669 6.85649 10.1751 4.3971 11.4619 1.34149C11.805 0.521692 11.805 0.223582 11.6335 0.149054C11.4619 0.0745272 7.77302 -9.23935e-09 7.00095 0.0745272ZM28.362 0.0745272C26.2173 0.298108 24.2442 1.41602 22.9574 2.98109L5.54256 27.7241C5.45679 27.9477 5.45679 27.9477 5.62836 28.0968C5.79994 28.2458 5.88571 28.2458 8.28774 28.2458C10.4324 28.1713 10.6898 28.1713 11.4619 28.0223C13.435 27.5751 14.9792 26.5317 16.0944 25.0412C17.3812 23.4016 33.4234 0.521692 33.5092 0.372637L33.3376 0.149054C33.2518 9.23935e-09 32.9945 0 31.1071 0L28.362 0.0745272ZM49.2082 0.0745272C47.321 0.298108 45.6053 1.04338 44.3184 2.23582L35.0534 15.2036L26.2173 27.7987C26.1315 28.2458 26.3031 28.2458 28.362 28.2458L31.1071 28.1713C33.5092 27.9477 35.568 26.8298 36.8549 25.1157C38.4849 22.8799 54.184 0.596218 54.184 0.447163C54.2697 3.69574e-08 54.0983 0 51.782 0L49.1225 0.0745272H49.2082Z" fill="#FED138"/>
</svg>
